<?xml version="1.0" encoding="utf-8"?>
<!-- Generator: Adobe Illustrator 19.0.0, SVG Export Plug-In . SVG Version: 6.00 Build 0)  -->
<svg version="1.1" id="Layer_1" xmlns="http://www.w3.org/2000/svg" xmlns:xlink="http://www.w3.org/1999/xlink" x="0px" y="0px"
	 width="400px" height="400px" viewBox="0 0 400 400" style="enable-background:new 0 0 400 400;" xml:space="preserve">
<style type="text/css">
	.st0{fill:#00FFCC;}
	.st1{fill:#FF0066;}
	.st2{fill:#4BAFFF;}
	.st3{fill:#19F3BE;}
	.st4{fill:#FF036A;}
</style>
<g>
	<path class="st0" d="M227.9,174.7c-24.2,0-43.9-19.7-43.9-43.9s19.7-43.9,43.9-43.9s43.9,19.7,43.9,43.9S252.1,174.7,227.9,174.7z
		 M227.9,90.9c-22,0-39.9,17.9-39.9,39.9s17.9,39.9,39.9,39.9c22,0,39.9-17.9,39.9-39.9S249.9,90.9,227.9,90.9z"/>
	<path class="st1" d="M179,181.6c-0.5,0-1-0.2-1.4-0.6l-48.8-48.8c-0.4-0.4-0.6-0.9-0.6-1.4s0.2-1,0.6-1.4l48.8-48.8
		c0.8-0.8,2-0.8,2.8,0l48.8,48.8c0.8,0.8,0.8,2,0,2.8L180.5,181C180.1,181.4,179.6,181.6,179,181.6z M133.1,130.8l46,46l46-46
		l-46-46L133.1,130.8z"/>
	<path class="st2" d="M200.6,233.6c-0.3,0-0.7-0.1-1-0.3l-41.7-24.1c-0.6-0.4-1-1-1-1.7v-48.1c0-0.7,0.4-1.4,1-1.7l41.7-24
		c0.6-0.4,1.4-0.4,2,0l41.7,24c0.6,0.4,1,1,1,1.7v48.1c0,0.7-0.4,1.4-1,1.7l-41.7,24C201.2,233.5,200.9,233.6,200.6,233.6z
		 M160.9,206.4l39.7,22.9l39.7-22.9v-45.8l-39.7-22.9l-39.7,22.9V206.4z"/>
	<path class="st3" d="M227.9,174.7c-1.1,0-2-0.9-2-2s0.9-2,2-2c22,0,39.9-17.9,39.9-39.9c0-1.1,0.9-2,2-2s2,0.9,2,2
		C271.8,155,252.1,174.7,227.9,174.7z"/>
	<path class="st4" d="M205.3,155.4c-0.5,0-1-0.2-1.4-0.6c-0.8-0.8-0.8-2,0-2.8l22.5-22.5c0.8-0.8,2-0.8,2.8,0c0.8,0.8,0.8,2,0,2.8
		l-22.5,22.5C206.3,155.2,205.8,155.4,205.3,155.4z"/>
	<path class="st2" d="M50.6,298.8v-0.2c0-11.4,9.1-21.4,20.8-21.4c7.5,0,12.2,3.3,16,7.2c0.2,0.2,0.2,0.5,0,0.7l-2.1,2.2
		c-0.2,0.2-0.5,0.2-0.7,0c-3.4-3.4-7.4-6.4-13.2-6.4c-9.3,0-16.5,7.8-16.5,17.5v0.2c0,9.8,7.4,17.7,16.8,17.7c5.6,0,10-2.8,13.4-6.4
		c0.2-0.2,0.5-0.2,0.7,0l2,1.7c0.2,0.2,0.2,0.5,0,0.7c-4.1,4.5-9,7.7-16.3,7.7C59.7,320,50.6,310.2,50.6,298.8z"/>
	<path class="st2" d="M93.5,298.8v-0.2c0-11.4,8.9-21.4,21-21.4c12.1,0,20.9,9.8,20.9,21.2v0.2c0,11.4-8.9,21.4-21,21.4
		C102.3,320,93.5,310.2,93.5,298.8z M131.2,298.8v-0.2c0-9.8-7.4-17.7-16.8-17.7c-9.7,0-16.6,7.9-16.6,17.5v0.2
		c0,9.8,7.4,17.7,16.8,17.7C124.2,316.3,131.2,308.4,131.2,298.8z"/>
	<path class="st2" d="M142.5,298.8v-0.2c0-13.3,10-21.4,19.8-21.4c7.5,0,12.5,3.9,15.9,8.5c0.3,0.4,0.9,0.2,0.9-0.3v-24.3
		c0-0.3,0.2-0.5,0.5-0.5h2.9c0.3,0,0.5,0.2,0.5,0.5v57.4c0,0.3-0.2,0.5-0.5,0.5h-2.9c-0.3,0-0.5-0.2-0.5-0.5v-7
		c0-0.5-0.6-0.7-0.9-0.3c-3.5,4.8-8.5,8.8-15.9,8.8C152.5,320,142.5,312.1,142.5,298.8z M179.4,298.7v-0.2
		c0-10.5-8.2-17.5-16.6-17.5c-8.9,0-16,6.5-16,17.4v0.2c0,10.7,7.4,17.6,16,17.6C171.2,316.2,179.4,309.1,179.4,298.7z"/>
	<path class="st2" d="M191.9,298.7v-0.2c0-11.8,8.3-21.3,19.4-21.3c11.4,0,18.7,9.3,18.7,21.4c0,0.5,0,0.8,0,1.1
		c0,0.3-0.2,0.5-0.5,0.5l-32.8,0c-0.3,0-0.5,0.3-0.5,0.6c0.9,9.8,8.1,15.5,16,15.5c6.1,0,10.4-2.6,13.7-6.1c0.2-0.2,0.5-0.2,0.7,0
		l2,1.7c0.2,0.2,0.2,0.5,0,0.7c-4.1,4.3-8.9,7.3-16.5,7.3C201.2,320,191.9,311.4,191.9,298.7z M225.2,296.7c0.3,0,0.5-0.3,0.5-0.5
		c-0.7-8-5.4-15.3-14.6-15.3c-7.9,0-14.1,6.5-15,15.3c0,0.3,0.2,0.6,0.5,0.6H225.2z"/>
	<path class="st2" d="M241.4,311.8v6.7c0,0.3-0.2,0.5-0.5,0.5h-2.9c-0.3,0-0.5-0.2-0.5-0.5v-57.4c0-0.3,0.2-0.5,0.5-0.5h2.9
		c0.3,0,0.5,0.2,0.5,0.5v24.6c0,0.5,0.6,0.7,0.9,0.3c3.5-4.8,8.5-8.8,15.9-8.8c9.8,0,19.8,7.9,19.8,21.2v0.2
		c0,13.3-10,21.4-19.8,21.4c-7.5,0-12.5-3.9-15.9-8.5C242,311.1,241.4,311.3,241.4,311.8z M273.8,298.8v-0.2
		c0-10.7-7.4-17.6-16-17.6c-8.5,0-16.6,7.1-16.6,17.5v0.2c0,10.5,8.2,17.5,16.6,17.5C266.6,316.2,273.8,309.8,273.8,298.8z"/>
	<path class="st2" d="M282.9,307.2V307c0-8.5,7.3-13.3,17.8-13.3c5.4,0,9.2,0.6,12.9,1.6c0.3,0.1,0.6-0.2,0.6-0.5v-1.1
		c0-8.2-5-12.5-13.4-12.5c-4.8,0-8.7,1.2-12.3,3c-0.3,0.1-0.6,0-0.7-0.3l-1-2.5c-0.1-0.3,0-0.5,0.3-0.7c4.3-2,8.6-3.3,14-3.3
		c5.5,0,9.9,1.5,12.9,4.5c2.7,2.7,4.2,6.5,4.2,11.5v24.9c0,0.3-0.2,0.5-0.5,0.5h-2.8c-0.3,0-0.5-0.2-0.5-0.5v-6.3
		c-2.8,3.9-7.8,7.8-15.6,7.8C291,320,282.9,315.7,282.9,307.2z M314.3,303.8v-4.2c0-0.2-0.1-0.4-0.4-0.5c-3.4-0.9-7.8-1.7-13.5-1.7
		c-8.6,0-13.4,3.8-13.4,9.5v0.2c0,5.9,5.6,9.4,11.8,9.4C307.2,316.3,314.3,311.2,314.3,303.8z"/>
	<path class="st2" d="M331.3,302.3v16.2c0,0.3-0.2,0.5-0.5,0.5h-2.9c-0.3,0-0.5-0.2-0.5-0.5v-39.8c0-0.3,0.2-0.5,0.5-0.5h2.9
		c0.3,0,0.5,0.2,0.5,0.5v9c0,0.5,0.7,0.7,0.9,0.2c3.4-6.1,9.5-10.4,16.6-10.4c0.3,0,0.5,0.2,0.5,0.5v3.3c0,0.3-0.2,0.5-0.5,0.5
		C333.8,282.2,331.3,294.5,331.3,302.3z"/>
</g>
</svg>
